<svg xmlns="http://www.w3.org/2000/svg" viewBox="0 0 400 400" width="400" height="400"><rect width="400" height="400" fill="#080b10"/><path d="M9.434 0L9.434-181.821L42.900-181.821Q76.367-181.821 88.215-179.238Q100.063-176.655 107.532-166.042Q115-155.430 115-132.183Q115-110.957 109.722-103.657Q104.443-96.357 88.945-94.897Q102.983-91.416 107.813-85.576Q112.642-79.736 113.821-74.851Q115-69.966 115-47.954L115 0L71.089 0L71.089-60.420Q71.089-75.020 68.787-78.501Q66.484-81.982 56.714-81.982L56.714 0L9.434 0M56.714-150.713L56.714-110.283Q64.688-110.283 67.888-112.473Q71.089-114.663 71.089-126.680L71.089-136.675Q71.089-145.322 68-148.018Q64.912-150.713 56.714-150.713M125.306 0L125.306-181.821L160.682-181.821Q194.935-181.821 207.007-178.677Q219.080-175.532 225.369-168.345Q231.658-161.157 233.230-152.341Q234.803-143.525 234.803-117.695L234.803-54.019Q234.803-29.536 232.500-21.282Q230.198-13.027 224.471-8.367Q218.743-3.706 210.320-1.853Q201.897 0 184.939 0L125.306 0M172.586-150.713L172.586-31.108Q182.806-31.108 185.164-35.208Q187.522-39.307 187.522-57.500L187.522-128.140Q187.522-140.493 186.736-143.975Q185.950-147.456 183.143-149.084Q180.335-150.713 172.586-150.713" transform="translate(78.500 284)" fill="#f4f6f8"/></svg>